<svg width="390" height="844" viewBox="0 0 390 844" fill="none" xmlns="http://www.w3.org/2000/svg">
<g clip-path="url(#clip0_3135_570)">
<rect width="390" height="844" rx="32" fill="url(#paint0_linear_3135_570)"/>
<path opacity="0.5" d="M169.326 375.176C170.38 373.614 172.142 372.677 174.026 372.677H221.027C225.569 372.677 228.267 377.752 225.726 381.517L188.765 436.301C187.711 437.863 185.95 438.799 184.066 438.799H137.065C132.523 438.799 129.825 433.724 132.366 429.959L169.326 375.176Z" fill="#DA4BDD"/>
<path d="M176.683 444.927C174.799 444.927 173.038 445.863 171.984 447.426L162.355 461.698C159.814 465.463 162.512 470.538 167.054 470.538H216.933C218.818 470.538 220.579 469.601 221.633 468.039L258.594 413.256C261.134 409.491 258.436 404.416 253.894 404.416H220.663C218.779 404.416 217.017 405.352 215.963 406.914L192.003 442.429C190.949 443.991 189.188 444.927 187.303 444.927H176.683Z" fill="#DA4BDD"/>
<path d="M109 0H281C277.686 0 275 2.68629 275 6V6.71329C275 9.20832 275 10.4558 274.902 11.5071C273.889 22.3234 265.323 30.8887 254.507 31.9016C253.456 32 252.208 32 249.713 32H140.287C137.792 32 136.544 32 135.493 31.9016C124.677 30.8887 116.111 22.3234 115.098 11.5071C115 10.4558 115 9.20832 115 6.71329V6C115 2.68629 112.314 0 109 0Z" fill="#0F0F0F"/>
<path d="M42.4956 19.4453C40.0503 19.4453 38.3081 21.1172 38.3081 23.4062V23.4219C38.3081 25.5625 39.8237 27.1406 41.9878 27.1406C43.5347 27.1406 44.5191 26.3516 44.9331 25.4609H45.0894C45.0894 25.5469 45.0816 25.6328 45.0816 25.7188C44.9956 27.875 44.2378 29.625 42.4487 29.625C41.4566 29.625 40.7612 29.1094 40.4644 28.3203L40.4409 28.2422H38.4566L38.4722 28.3281C38.8316 30.0547 40.3784 31.2812 42.4487 31.2812C45.2847 31.2812 46.9956 29.0312 46.9956 25.2344V25.2188C46.9956 21.1562 44.9019 19.4453 42.4956 19.4453ZM42.4878 25.5938C41.2066 25.5938 40.2769 24.6562 40.2769 23.3516V23.3359C40.2769 22.0781 41.2691 21.0859 42.5112 21.0859C43.7612 21.0859 44.7378 22.0938 44.7378 23.3828V23.3984C44.7378 24.6719 43.7612 25.5938 42.4878 25.5938ZM50.2225 23.6953C50.9412 23.6953 51.4647 23.1484 51.4647 22.4609C51.4647 21.7656 50.9412 21.2266 50.2225 21.2266C49.5116 21.2266 48.9803 21.7656 48.9803 22.4609C48.9803 23.1484 49.5116 23.6953 50.2225 23.6953ZM50.2225 29.4922C50.9412 29.4922 51.4647 28.9531 51.4647 28.2578C51.4647 27.5625 50.9412 27.0234 50.2225 27.0234C49.5116 27.0234 48.9803 27.5625 48.9803 28.2578C48.9803 28.9531 49.5116 29.4922 50.2225 29.4922ZM58.9181 31H60.8478V28.8359H62.3634V27.1719H60.8478V19.7266H57.9963C56.465 22.0547 54.8634 24.6484 53.4025 27.1875V28.8359H58.9181V31ZM55.2775 27.2188V27.1016C56.3713 25.1875 57.6759 23.1016 58.8322 21.3359H58.9494V27.2188H55.2775ZM66.7153 31H68.7309V19.7266H66.7231L63.7778 21.7969V23.6953L66.5825 21.7109H66.7153V31Z" fill="#0F0F0F"/>
<path opacity="0.35" d="M340 19.5H357C358.933 19.5 360.5 21.067 360.5 23V28C360.5 29.933 358.933 31.5 357 31.5H340C338.067 31.5 336.5 29.933 336.5 28V23C336.5 21.067 338.067 19.5 340 19.5Z" stroke="#0F0F0F"/>
<path opacity="0.4" d="M362 24V28.2203C362.849 27.8629 363.401 27.0314 363.401 26.1102C363.401 25.1889 362.849 24.3574 362 24Z" fill="#0F0F0F"/>
<path d="M338 23C338 21.8954 338.895 21 340 21H357C358.105 21 359 21.8954 359 23V28C359 29.1046 358.105 30 357 30H340C338.895 30 338 29.1046 338 28V23Z" fill="#0F0F0F"/>
<path d="M318.115 28.9187C319.535 27.6932 321.614 27.6933 323.034 28.9187C323.106 28.9847 323.147 29.0783 323.149 29.1766C323.151 29.2748 323.114 29.3694 323.045 29.4383L320.821 31.7283C320.756 31.7956 320.668 31.8337 320.575 31.8338C320.482 31.8338 320.393 31.7956 320.328 31.7283L318.104 29.4383C318.036 29.3694 317.998 29.2748 318 29.1766C318.002 29.0783 318.044 28.9846 318.115 28.9187ZM315.109 26.1785C318.168 23.2739 322.906 23.2739 325.965 26.1785C326.034 26.2466 326.073 26.3403 326.074 26.4383C326.075 26.5362 326.037 26.6306 325.97 26.7L324.685 28.0252C324.552 28.1605 324.338 28.1638 324.202 28.032C323.198 27.1036 321.891 26.5896 320.536 26.5896C319.182 26.5902 317.876 27.1041 316.872 28.032C316.736 28.1638 316.522 28.1605 316.39 28.0252L315.104 26.7C315.037 26.6306 314.999 26.5362 315 26.4383C315.001 26.3403 315.04 26.2466 315.109 26.1785ZM312.107 23.4422C316.799 18.8526 324.201 18.8526 328.893 23.4422C328.96 23.5104 328.999 23.6037 329 23.701C329 23.7981 328.963 23.8918 328.896 23.9607L327.609 25.2859C327.477 25.4219 327.262 25.4236 327.127 25.2898C325.339 23.5551 322.967 22.5878 320.5 22.5877C318.033 22.5878 315.661 23.5551 313.873 25.2898C313.739 25.4237 313.523 25.4221 313.391 25.2859L312.104 23.9607C312.037 23.8918 312 23.798 312 23.701C312.001 23.6037 312.039 23.5103 312.107 23.4422Z" fill="#0F0F0F"/>
<path d="M296 23C296 22.4477 296.448 22 297 22H298C298.552 22 299 22.4477 299 23V31C299 31.5523 298.552 32 298 32H297C296.448 32 296 31.5523 296 31V23Z" fill="#0F0F0F"/>
<path d="M301 21C301 20.4477 301.448 20 302 20H303C303.552 20 304 20.4477 304 21V31C304 31.5523 303.552 32 303 32H302C301.448 32 301 31.5523 301 31V21Z" fill="#0F0F0F"/>
<path d="M291 26.5C291 25.9477 291.448 25.5 292 25.5H293C293.552 25.5 294 25.9477 294 26.5V31C294 31.5523 293.552 32 293 32H292C291.448 32 291 31.5523 291 31V26.5Z" fill="#0F0F0F"/>
<path d="M286 29C286 28.4477 286.448 28 287 28H288C288.552 28 289 28.4477 289 29V31C289 31.5523 288.552 32 288 32H287C286.448 32 286 31.5523 286 31V29Z" fill="#0F0F0F"/>
<rect x="128" y="831" width="134" height="5" rx="2.5" fill="#0F0F0F"/>
</g>
<defs>
<linearGradient id="paint0_linear_3135_570" x1="0" y1="0" x2="467.753" y2="45.5497" gradientUnits="userSpaceOnUse">
<stop stop-color="#0F0F0F"/>
<stop offset="1" stop-color="#2D2D2D"/>
</linearGradient>
<clipPath id="clip0_3135_570">
<rect width="390" height="844" rx="32" fill="white"/>
</clipPath>
</defs>
</svg>
