<svg width="32" height="32" viewBox="0 0 32 32" fill="none" xmlns="http://www.w3.org/2000/svg">
<path d="M24.7018 5.8913C25.0946 5.57061 25.6744 5.59342 26.0407 5.95966C26.4066 6.32573 26.4292 6.90484 26.109 7.29755L26.0407 7.37372L17.4137 15.9997L26.0407 24.6266L26.109 24.7018C26.4296 25.0946 26.4069 25.6745 26.0407 26.0407C25.6745 26.4069 25.0946 26.4296 24.7018 26.1091L24.6266 26.0407L15.9997 17.4138L7.37368 26.0407C6.9832 26.431 6.3501 26.431 5.95962 26.0407C5.56915 25.6502 5.56926 25.0172 5.95962 24.6266L14.5856 15.9997L5.95962 7.37372L5.89126 7.29755C5.57091 6.90477 5.59351 6.32577 5.95962 5.95966C6.32574 5.59354 6.90474 5.57095 7.29751 5.8913L7.37368 5.95966L15.9997 14.5856L24.6266 5.95966L24.7018 5.8913Z" fill="black"/>
</svg>
