<svg width="32" height="32" viewBox="0 0 32 32" fill="none" xmlns="http://www.w3.org/2000/svg">
<path d="M23.6515 16.1787C23.6515 14.2318 23.6463 13.1669 23.4445 12.3008C23.26 11.5092 22.8976 10.8411 22.0148 9.78708C21.5642 9.25204 21.0191 8.80643 20.4074 8.47068L20.1418 8.33396L20.1398 8.33298L19.0959 7.82614C19.0685 7.81287 19.0408 7.79889 19.0148 7.78318C18.7203 7.60537 18.466 7.36775 18.2687 7.08591C18.1207 6.87447 18.0073 6.64119 17.9318 6.39548L17.8693 6.14548C17.8667 6.13225 17.8645 6.11876 17.8625 6.10544C17.7968 5.67975 17.5714 5.29519 17.2326 5.02927C16.9359 4.79656 16.5714 4.66973 16.1974 4.66696L16.0363 4.6738L15.8898 4.67575C15.4683 4.65044 15.0517 4.78299 14.7228 5.04782C14.4352 5.27953 14.2317 5.59775 14.1418 5.9531L14.1105 6.10739C14.107 6.12959 14.1028 6.15189 14.0978 6.1738C14.0384 6.43661 13.9364 6.68739 13.7961 6.91599L13.6427 7.13767C13.4773 7.3506 13.2781 7.53404 13.0539 7.68161L12.8214 7.81736C12.8154 7.82042 12.809 7.8232 12.8029 7.82614L11.7589 8.33298L11.757 8.33396C11.0383 8.68082 10.4001 9.17489 9.8859 9.78513L9.88688 9.78611C9.00399 10.8408 8.64163 11.5088 8.45719 12.3008C8.2555 13.167 8.24918 14.2318 8.24918 16.1787C8.24916 17.3621 7.62559 18.4078 7.11539 19.1953C6.82985 19.636 6.59147 19.9753 6.35856 20.3554C6.19127 20.6285 6.06194 20.8676 5.97282 21.083L5.89762 21.291C5.78204 21.6625 5.73282 22.1617 5.85368 22.498C5.90383 22.6374 5.97679 22.7337 6.08805 22.8056C6.20806 22.883 6.45039 22.9814 6.91618 22.9814H25.0295L25.0851 22.9824C25.2681 22.9926 25.4507 22.9562 25.6154 22.8759C25.7802 22.7956 25.9219 22.6739 26.0265 22.5234C26.1311 22.3729 26.1961 22.198 26.214 22.0156C26.2274 21.8789 26.2142 21.7413 26.1759 21.6103L26.1291 21.4814L26.0959 21.3955C26.0146 21.1498 25.857 20.8506 25.6213 20.4746C25.3711 20.0755 25.1329 19.7398 24.8293 19.2715C24.3006 18.456 23.6516 17.3644 23.6515 16.1787ZM25.6515 16.1787C25.6516 16.7046 25.9602 17.3386 26.508 18.1836C26.7425 18.5454 27.0731 19.0246 27.3166 19.4131C27.5652 19.8098 27.8158 20.2547 27.9757 20.7158C28.1749 21.1873 28.2542 21.7011 28.2043 22.2109C28.153 22.7332 27.9686 23.2341 27.6691 23.665C27.3695 24.096 26.9642 24.4437 26.4923 24.6738C26.0373 24.8957 25.5348 24.9995 25.0295 24.9804L6.91618 24.9814C6.17132 24.9814 5.5246 24.8229 5.00211 24.4853C4.47116 24.1422 4.14737 23.665 3.97086 23.1738C3.6386 22.2488 3.81384 21.2541 3.98746 20.6963L3.98844 20.6953L4.05094 20.5088C4.20783 20.0778 4.42995 19.6738 4.6525 19.3105C4.89705 18.9114 5.20562 18.464 5.43668 18.1074C5.9597 17.3001 6.24916 16.7071 6.24918 16.1787C6.24918 14.3256 6.24301 12.99 6.50895 11.8476C6.79219 10.6311 7.36607 9.6817 8.35368 8.50193L8.35465 8.49997L8.62418 8.19724C9.2691 7.50854 10.036 6.94327 10.8879 6.5322L11.9093 6.0361C11.9685 6.00588 12.0229 5.96353 12.0636 5.9111L12.1154 5.82614C12.1289 5.79755 12.1384 5.76725 12.1457 5.7363C12.2994 4.8524 12.769 4.0538 13.4689 3.49021C14.166 2.92893 15.0422 2.64117 15.9347 2.67673C16.8453 2.61496 17.7476 2.89072 18.467 3.45505C19.1948 4.02602 19.6813 4.84902 19.8322 5.76071L19.8605 5.85349C19.8732 5.88325 19.8888 5.9118 19.9074 5.93845C19.9407 5.98611 19.9841 6.02541 20.0324 6.05759L21.0129 6.53318C21.8646 6.94405 22.6306 7.50879 23.2756 8.19724L23.5451 8.49997L23.547 8.50193L23.8976 8.93454C24.6734 9.92321 25.1437 10.783 25.3918 11.8476C25.6579 12.9901 25.6515 14.3257 25.6515 16.1787Z" fill="black"/>
<path d="M20.2797 22.9813C20.7973 22.971 21.2311 23.3561 21.2924 23.8592L21.3002 23.9617L21.2982 24.2274C21.2793 24.8462 21.1511 25.4574 20.9193 26.033C20.6545 26.6909 20.2596 27.2884 19.7582 27.7899C19.2567 28.2914 18.6593 28.6871 18.0014 28.952C17.3557 29.2119 16.6649 29.3395 15.9691 29.3309L15.9701 29.3319C15.961 29.332 15.9519 29.3307 15.9428 29.3309C15.9383 29.3308 15.9335 29.3319 15.9291 29.3319C15.2337 29.3411 14.5434 29.2124 13.8979 28.9529C13.2394 28.6883 12.6408 28.2937 12.1391 27.7918C11.6373 27.2899 11.2424 26.6916 10.9779 26.033C10.7135 25.3745 10.5847 24.6693 10.6 23.9598L10.6078 23.8572C10.67 23.3544 11.104 22.9702 11.6215 22.9813C12.1391 22.9924 12.5566 23.3951 12.5971 23.9002L12.6 24.0028C12.5905 24.4425 12.6695 24.8798 12.8334 25.2879C12.9973 25.696 13.2422 26.0667 13.5531 26.3778C13.864 26.6887 14.235 26.9335 14.643 27.0975C15 27.241 15.3794 27.3206 15.7631 27.3319H15.9691L16.1342 27.3309C16.518 27.3191 16.8973 27.2402 17.2543 27.0965C17.6624 26.9322 18.0331 26.6869 18.3441 26.3758C18.6551 26.0648 18.9006 25.694 19.0648 25.286C19.2085 24.9289 19.2875 24.5497 19.2992 24.1658L19.3002 24.0008L19.3031 23.8992C19.3441 23.394 19.7621 22.9918 20.2797 22.9813Z" fill="black"/>
</svg>
